<svg width="185" height="51" viewBox="0 0 185 51" fill="none" xmlns="http://www.w3.org/2000/svg">
<rect x="0.5" y="0.940186" width="183.09" height="49" rx="3.5" fill="#FF324D"/>
<g clip-path="url(#clip0_9_247)">
<path d="M48.8256 22.5968C48.8954 22.4107 48.8722 22.2363 48.7559 22.0735C48.6396 21.9107 48.4884 21.8293 48.3024 21.8293H46.5582L42.9652 18.7944C42.7559 18.5619 42.5001 18.4456 42.1977 18.4456C41.8954 18.4456 41.628 18.5619 41.3954 18.7944L37.8722 21.8293H36.4419L35.5698 18.7596C35.2908 17.8526 34.7791 17.3991 34.0349 17.3991H31.628C31.4884 17.3991 31.3605 17.4514 31.2442 17.5561C31.128 17.6607 31.0698 17.7886 31.0698 17.9398C31.0698 18.091 31.128 18.2247 31.2442 18.341C31.3605 18.4572 31.4884 18.5154 31.628 18.5154H34.0349C34.221 18.5154 34.3721 18.6898 34.4884 19.0386L37.5582 30.3758C37.6512 30.6549 37.8373 30.7944 38.1163 30.7944H45.6512C45.907 30.7944 46.0815 30.6665 46.1745 30.4107L48.8256 22.5968ZM42.1977 19.5619L44.8489 21.8293H39.5466L42.1977 19.5619ZM45.2675 29.6782H38.5349L36.7559 22.9456H47.5001L45.2675 29.6782ZM45.1454 32.3119C45.1454 32.3119 45.0785 32.245 44.9448 32.1113C44.8111 31.9776 44.5466 31.9107 44.1512 31.9107C43.7559 31.9107 43.4245 32.0444 43.157 32.3119C42.8896 32.5793 42.7559 32.9107 42.7559 33.3061C42.7559 33.7014 42.8896 34.0328 43.157 34.3003C43.4245 34.5677 43.7559 34.7014 44.1512 34.7014C44.5466 34.7014 44.878 34.5677 45.1454 34.3003C45.4128 34.0328 45.5466 33.7014 45.5466 33.3061C45.5466 32.9107 45.4128 32.5793 45.1454 32.3119ZM40.1222 32.3119C40.1222 32.3119 40.0553 32.245 39.9216 32.1113C39.7878 31.9776 39.5233 31.9107 39.128 31.9107C38.7326 31.9107 38.4012 32.0444 38.1338 32.3119C37.8663 32.5793 37.7326 32.9107 37.7326 33.3061C37.7326 33.7014 37.8663 34.0328 38.1338 34.3003C38.4012 34.5677 38.7326 34.7014 39.128 34.7014C39.5233 34.7014 39.8547 34.5677 40.1222 34.3003C40.3896 34.0328 40.5233 33.7014 40.5233 33.3061C40.5233 32.9107 40.3896 32.5793 40.1222 32.3119Z" fill="white"/>
</g>
<path d="M66.2801 27.9602H61.4161L60.5201 30.4402H58.9841L63.0161 19.3522H64.6961L68.7121 30.4402H67.1761L66.2801 27.9602ZM65.8641 26.7762L63.8481 21.1442L61.8321 26.7762H65.8641ZM69.9253 26.0242C69.9253 25.1282 70.1066 24.3442 70.4693 23.6722C70.832 22.9895 71.328 22.4615 71.9573 22.0882C72.5973 21.7149 73.312 21.5282 74.1013 21.5282C74.784 21.5282 75.4186 21.6882 76.0053 22.0082C76.592 22.3175 77.04 22.7282 77.3493 23.2402V18.6002H78.8213V30.4402H77.3493V28.7922C77.0613 29.3149 76.6346 29.7469 76.0693 30.0882C75.504 30.4189 74.8426 30.5842 74.0853 30.5842C73.3066 30.5842 72.5973 30.3922 71.9573 30.0082C71.328 29.6242 70.832 29.0855 70.4693 28.3922C70.1066 27.6989 69.9253 26.9095 69.9253 26.0242ZM77.3493 26.0402C77.3493 25.3789 77.216 24.8029 76.9493 24.3122C76.6826 23.8215 76.32 23.4482 75.8613 23.1922C75.4133 22.9255 74.9173 22.7922 74.3733 22.7922C73.8293 22.7922 73.3333 22.9202 72.8853 23.1762C72.4373 23.4322 72.08 23.8055 71.8133 24.2962C71.5466 24.7869 71.4133 25.3629 71.4133 26.0242C71.4133 26.6962 71.5466 27.2829 71.8133 27.7842C72.08 28.2749 72.4373 28.6535 72.8853 28.9202C73.3333 29.1762 73.8293 29.3042 74.3733 29.3042C74.9173 29.3042 75.4133 29.1762 75.8613 28.9202C76.32 28.6535 76.6826 28.2749 76.9493 27.7842C77.216 27.2829 77.3493 26.7015 77.3493 26.0402ZM80.7378 26.0242C80.7378 25.1282 80.9191 24.3442 81.2818 23.6722C81.6445 22.9895 82.1405 22.4615 82.7698 22.0882C83.4098 21.7149 84.1245 21.5282 84.9138 21.5282C85.5965 21.5282 86.2311 21.6882 86.8178 22.0082C87.4045 22.3175 87.8525 22.7282 88.1618 23.2402V18.6002H89.6338V30.4402H88.1618V28.7922C87.8738 29.3149 87.4471 29.7469 86.8818 30.0882C86.3165 30.4189 85.6551 30.5842 84.8978 30.5842C84.1191 30.5842 83.4098 30.3922 82.7698 30.0082C82.1405 29.6242 81.6445 29.0855 81.2818 28.3922C80.9191 27.6989 80.7378 26.9095 80.7378 26.0242ZM88.1618 26.0402C88.1618 25.3789 88.0285 24.8029 87.7618 24.3122C87.4951 23.8215 87.1325 23.4482 86.6738 23.1922C86.2258 22.9255 85.7298 22.7922 85.1858 22.7922C84.6418 22.7922 84.1458 22.9202 83.6978 23.1762C83.2498 23.4322 82.8925 23.8055 82.6258 24.2962C82.3591 24.7869 82.2258 25.3629 82.2258 26.0242C82.2258 26.6962 82.3591 27.2829 82.6258 27.7842C82.8925 28.2749 83.2498 28.6535 83.6978 28.9202C84.1458 29.1762 84.6418 29.3042 85.1858 29.3042C85.7298 29.3042 86.2258 29.1762 86.6738 28.9202C87.1325 28.6535 87.4951 28.2749 87.7618 27.7842C88.0285 27.2829 88.1618 26.7015 88.1618 26.0402ZM103.224 19.2882V20.4722H100.184V30.4402H98.7279V20.4722H95.6719V19.2882H103.224ZM108.84 30.5842C108.019 30.5842 107.272 30.3975 106.6 30.0242C105.939 29.6509 105.416 29.1229 105.032 28.4402C104.659 27.7469 104.472 26.9469 104.472 26.0402C104.472 25.1442 104.664 24.3549 105.048 23.6722C105.443 22.9789 105.976 22.4509 106.648 22.0882C107.32 21.7149 108.072 21.5282 108.904 21.5282C109.736 21.5282 110.488 21.7149 111.16 22.0882C111.832 22.4509 112.36 22.9735 112.744 23.6562C113.139 24.3389 113.336 25.1335 113.336 26.0402C113.336 26.9469 113.134 27.7469 112.728 28.4402C112.334 29.1229 111.795 29.6509 111.112 30.0242C110.43 30.3975 109.672 30.5842 108.84 30.5842ZM108.84 29.3042C109.363 29.3042 109.854 29.1815 110.312 28.9362C110.771 28.6909 111.139 28.3229 111.416 27.8322C111.704 27.3415 111.848 26.7442 111.848 26.0402C111.848 25.3362 111.71 24.7389 111.432 24.2482C111.155 23.7575 110.792 23.3949 110.344 23.1602C109.896 22.9149 109.411 22.7922 108.888 22.7922C108.355 22.7922 107.864 22.9149 107.416 23.1602C106.979 23.3949 106.627 23.7575 106.36 24.2482C106.094 24.7389 105.96 25.3362 105.96 26.0402C105.96 26.7549 106.088 27.3575 106.344 27.8482C106.611 28.3389 106.963 28.7069 107.4 28.9522C107.838 29.1869 108.318 29.3042 108.84 29.3042ZM118.972 24.8562C118.972 23.7682 119.218 22.7922 119.708 21.9282C120.199 21.0535 120.866 20.3709 121.708 19.8802C122.562 19.3895 123.506 19.1442 124.54 19.1442C125.756 19.1442 126.818 19.4375 127.724 20.0242C128.631 20.6109 129.292 21.4429 129.708 22.5202H127.964C127.655 21.8482 127.207 21.3309 126.62 20.9682C126.044 20.6055 125.351 20.4242 124.54 20.4242C123.762 20.4242 123.063 20.6055 122.444 20.9682C121.826 21.3309 121.34 21.8482 120.988 22.5202C120.636 23.1815 120.46 23.9602 120.46 24.8562C120.46 25.7415 120.636 26.5202 120.988 27.1922C121.34 27.8535 121.826 28.3655 122.444 28.7282C123.063 29.0909 123.762 29.2722 124.54 29.2722C125.351 29.2722 126.044 29.0962 126.62 28.7442C127.207 28.3815 127.655 27.8642 127.964 27.1922H129.708C129.292 28.2589 128.631 29.0855 127.724 29.6722C126.818 30.2482 125.756 30.5362 124.54 30.5362C123.506 30.5362 122.562 30.2962 121.708 29.8162C120.866 29.3255 120.199 28.6482 119.708 27.7842C119.218 26.9202 118.972 25.9442 118.972 24.8562ZM131.332 26.0242C131.332 25.1282 131.513 24.3442 131.876 23.6722C132.238 22.9895 132.734 22.4615 133.364 22.0882C134.004 21.7149 134.713 21.5282 135.492 21.5282C136.26 21.5282 136.926 21.6935 137.492 22.0242C138.057 22.3549 138.478 22.7709 138.756 23.2722V21.6722H140.228V30.4402H138.756V28.8082C138.468 29.3202 138.036 29.7469 137.46 30.0882C136.894 30.4189 136.233 30.5842 135.476 30.5842C134.697 30.5842 133.993 30.3922 133.364 30.0082C132.734 29.6242 132.238 29.0855 131.876 28.3922C131.513 27.6989 131.332 26.9095 131.332 26.0242ZM138.756 26.0402C138.756 25.3789 138.622 24.8029 138.356 24.3122C138.089 23.8215 137.726 23.4482 137.268 23.1922C136.82 22.9255 136.324 22.7922 135.78 22.7922C135.236 22.7922 134.74 22.9202 134.292 23.1762C133.844 23.4322 133.486 23.8055 133.22 24.2962C132.953 24.7869 132.82 25.3629 132.82 26.0242C132.82 26.6962 132.953 27.2829 133.22 27.7842C133.486 28.2749 133.844 28.6535 134.292 28.9202C134.74 29.1762 135.236 29.3042 135.78 29.3042C136.324 29.3042 136.82 29.1762 137.268 28.9202C137.726 28.6535 138.089 28.2749 138.356 27.7842C138.622 27.2829 138.756 26.7015 138.756 26.0402ZM144.144 23.0962C144.4 22.5949 144.763 22.2055 145.232 21.9282C145.712 21.6509 146.293 21.5122 146.976 21.5122V23.0162H146.592C144.96 23.0162 144.144 23.9015 144.144 25.6722V30.4402H142.688V21.6722H144.144V23.0962ZM150.433 22.8722V28.0402C150.433 28.4669 150.523 28.7709 150.705 28.9522C150.886 29.1229 151.201 29.2082 151.649 29.2082H152.721V30.4402H151.409C150.598 30.4402 149.99 30.2535 149.585 29.8802C149.179 29.5069 148.977 28.8935 148.977 28.0402V22.8722H147.841V21.6722H148.977V19.4642H150.433V21.6722H152.721V22.8722H150.433Z" fill="white"/>
<rect x="0.5" y="0.940186" width="183.09" height="49" rx="3.5" stroke="#FF324D"/>
<defs>
<clipPath id="clip0_9_247">
<rect width="18" height="18" fill="white" transform="matrix(1 0 0 -1 31 35.0503)"/>
</clipPath>
</defs>
</svg>
