<svg width="130" height="37" viewBox="0 0 130 37" fill="none" xmlns="http://www.w3.org/2000/svg">
<rect width="37" height="37" fill="white"/>
<g clip-path="url(#clip0_10_982)">
<path d="M16.5466 17.8953L17.2442 16.9186L14.907 13.7442H9.56982V14.8604H14.314L16.5466 17.8953ZM25.5466 14.8604L24.221 16.0465C23.9884 16.2558 23.9652 16.4535 24.1512 16.6395L24.2559 16.779C24.4419 16.9651 24.6396 16.9651 24.8489 16.779L27.0815 14.7558L27.221 14.6163C27.314 14.5232 27.3605 14.4244 27.3605 14.3197C27.3605 14.2151 27.314 14.1163 27.221 14.0232L27.0815 13.8837L24.814 11.8256C24.6047 11.6395 24.407 11.6395 24.221 11.8256L24.1163 11.9651C23.9303 12.1279 23.9535 12.3139 24.1861 12.5232L25.5117 13.7442H21.4652L14.314 23.7907H9.56982V24.9069H14.907L22.0233 14.8604H25.5466ZM27.0815 23.9302L24.814 21.8721C24.6047 21.686 24.407 21.686 24.221 21.8721L24.1163 22.0116C23.9303 22.1744 23.9535 22.3604 24.1861 22.5697L25.5117 23.7907H22.0233L20.0349 20.686L19.3373 21.6628L21.4652 24.9069H25.5466L24.221 26.093C23.9884 26.3023 23.9652 26.5 24.1512 26.686L24.2559 26.8256C24.4419 27.0116 24.6396 27.0116 24.8489 26.8256L27.0815 24.8023L27.221 24.6628C27.314 24.5697 27.3605 24.4709 27.3605 24.3663C27.3605 24.2616 27.314 24.1628 27.221 24.0697L27.0815 23.9302Z" fill="#292B2C"/>
</g>
<rect width="37" height="37" transform="translate(46.3)" fill="white"/>
<g clip-path="url(#clip1_10_982)">
<path d="M73.6257 25.9885L68.7071 21.0001C69.8234 19.6512 70.3815 18.0931 70.3815 16.3257C70.3815 14.3257 69.678 12.6164 68.271 11.1978C66.8641 9.77915 65.1548 9.06985 63.1431 9.06985C61.1315 9.06985 59.4164 9.77915 57.9978 11.1978C56.5792 12.6164 55.8699 14.3315 55.8699 16.3431C55.8699 18.3547 56.5792 20.0698 57.9978 21.4885C59.4164 22.9071 61.1373 23.6164 63.1606 23.6164C64.9745 23.6164 66.5559 23.0117 67.9048 21.8024L72.8582 26.7559C73.1141 27.0117 73.3757 27.0117 73.6431 26.7559C73.9106 26.5001 73.9048 26.2443 73.6257 25.9885ZM67.4687 20.6687C67.4687 20.6687 67.1693 20.9681 66.5705 21.5669C65.9716 22.1658 64.8292 22.4652 63.1431 22.4652C61.4571 22.4652 60.0094 21.8664 58.8001 20.6687C57.5908 19.471 56.9862 18.0233 56.9862 16.3257C56.9862 14.628 57.5908 13.1803 58.8001 11.9826C60.0094 10.785 61.4571 10.1861 63.1431 10.1861C64.8292 10.1861 66.271 10.785 67.4687 11.9826C68.6664 13.1803 69.2652 14.628 69.2652 16.3257C69.2652 18.0233 68.6664 19.471 67.4687 20.6687ZM65.9164 15.7675H63.6838V13.535C63.6838 13.3722 63.6315 13.2385 63.5269 13.1338C63.4222 13.0291 63.2943 12.9768 63.1431 12.9768C62.992 12.9768 62.8582 13.0291 62.742 13.1338C62.6257 13.2385 62.5675 13.3722 62.5675 13.535V15.7675H60.335C60.1955 15.7675 60.0675 15.8198 59.9513 15.9245C59.835 16.0291 59.7768 16.1629 59.7768 16.3257C59.7768 16.4885 59.835 16.6222 59.9513 16.7268C60.0675 16.8315 60.1955 16.8838 60.335 16.8838H62.5675V19.1164C62.5675 19.2791 62.6257 19.4129 62.742 19.5175C62.8582 19.6222 62.992 19.6745 63.1431 19.6745C63.2943 19.6745 63.4222 19.6222 63.5269 19.5175C63.6315 19.4129 63.6838 19.2791 63.6838 19.1164V16.8838H65.9164C66.0792 16.8838 66.2129 16.8315 66.3175 16.7268C66.4222 16.6222 66.4745 16.4885 66.4745 16.3257C66.4745 16.1629 66.4222 16.0291 66.3175 15.9245C66.2129 15.8198 66.0792 15.7675 65.9164 15.7675Z" fill="#292B2C"/>
</g>
<rect width="37" height="37" transform="translate(92.6001)" fill="white"/>
<g clip-path="url(#clip2_10_982)">
<path d="M107.193 11.0581C108.03 11.0581 109.077 11.6744 110.333 12.9069L111.135 13.6744L111.902 12.9069C113.112 11.6744 114.147 11.0581 115.007 11.0581C116.03 11.0581 116.949 11.4535 117.763 12.2442C118.554 13.0348 118.949 14 118.949 15.1395C118.949 16.279 118.542 17.2442 117.728 18.0348C117.682 18.1046 115.6 20.3604 111.484 24.8023C111.368 24.8953 111.24 24.9418 111.1 24.9418C110.961 24.9418 110.844 24.8953 110.751 24.8023C106.984 20.593 104.902 18.2907 104.507 17.8953C103.693 17.1046 103.286 16.1453 103.286 15.0174C103.286 13.8895 103.693 12.9186 104.507 12.1046C105.205 11.4069 106.1 11.0581 107.193 11.0581ZM107.193 9.94183C105.775 9.94183 104.612 10.4069 103.705 11.3372C102.682 12.3372 102.17 13.5581 102.17 15C102.17 16.4418 102.682 17.6744 103.705 18.6976L109.949 25.5697C110.275 25.8953 110.664 26.0581 111.118 26.0581C111.571 26.0581 111.961 25.8953 112.286 25.5697C116.402 21.1279 118.484 18.8837 118.53 18.8372C119.554 17.8139 120.065 16.5814 120.065 15.1395C120.065 13.6976 119.554 12.4651 118.53 11.4418C117.53 10.4418 116.356 9.94183 115.007 9.94183C113.844 9.94183 112.542 10.6628 111.1 12.1046C109.658 10.6628 108.356 9.94183 107.193 9.94183Z" fill="#292B2C"/>
</g>
<defs>
<clipPath id="clip0_10_982">
<rect width="18" height="18" fill="white" transform="matrix(1 0 0 -1 9.5 27)"/>
</clipPath>
<clipPath id="clip1_10_982">
<rect width="18" height="18" fill="white" transform="matrix(1 0 0 -1 55.8 27)"/>
</clipPath>
<clipPath id="clip2_10_982">
<rect width="18" height="18" fill="white" transform="matrix(1 0 0 -1 102.1 27)"/>
</clipPath>
</defs>
</svg>
