<svg width="261" height="41" viewBox="0 0 261 41" fill="none" xmlns="http://www.w3.org/2000/svg">
<g clip-path="url(#clip0_9_733)">
<path d="M19.13 14.75H21.38L21.0988 17H19.13V23.75H16.212V17H14.63V14.75H16.212V13.2383C16.212 12.2539 16.4581 11.5098 16.9503 11.0059C17.4425 10.502 18.2628 10.25 19.4113 10.25H21.38V12.5H20.1847C19.7394 12.5 19.4523 12.5703 19.3234 12.7109C19.1945 12.8516 19.13 13.0859 19.13 13.4141V14.75Z" fill="white"/>
</g>
<g clip-path="url(#clip1_9_733)">
<path d="M67.29 11.8684C66.8682 12.5245 66.3058 13.1103 65.6028 13.6258V14.0476C65.6028 16.508 64.7183 18.7399 62.9491 20.7434C61.18 22.7468 58.8309 23.7485 55.9019 23.7485C54.0273 23.7485 52.2933 23.233 50.7 22.202C51.0749 22.2489 51.3443 22.2723 51.5084 22.2723C53.0783 22.2723 54.4843 21.7802 55.7262 20.7961C54.9998 20.7726 54.3437 20.5442 53.7579 20.1107C53.172 19.6772 52.7737 19.1207 52.5628 18.4411C52.844 18.488 53.0549 18.5114 53.1955 18.5114C53.4298 18.5114 53.7344 18.4646 54.1093 18.3708C53.3361 18.2068 52.6858 17.8143 52.1586 17.1934C51.6314 16.5724 51.3678 15.8519 51.3678 15.0318V14.9966C51.8833 15.2778 52.3988 15.4184 52.9143 15.4184C51.9067 14.7623 51.4029 13.8133 51.4029 12.5714C51.4029 11.9856 51.5552 11.4232 51.8598 10.8843C53.6641 13.1103 55.9956 14.2936 58.8544 14.4342C58.8075 14.2702 58.7841 14.0125 58.7841 13.661C58.7841 12.7003 59.1121 11.8918 59.7682 11.2357C60.4243 10.5796 61.2327 10.2516 62.1934 10.2516C63.1542 10.2516 63.9743 10.6148 64.6538 11.3412C65.3568 11.224 66.0832 10.9428 66.833 10.4976C66.5987 11.3178 66.0949 11.9504 65.3216 12.3956C66.048 12.3253 66.7041 12.1496 67.29 11.8684Z" fill="white"/>
</g>
<g clip-path="url(#clip2_9_733)">
<path d="M99.5128 17.7031C99.8644 17.9844 100.128 18.207 100.304 18.3711C100.48 18.5352 100.655 18.793 100.831 19.1445C101.007 19.4961 101.095 19.8711 101.095 20.2695C101.095 21.207 100.661 22.0215 99.7941 22.7129C98.9269 23.4043 97.7316 23.75 96.2081 23.75C94.8956 23.75 93.8878 23.4805 93.1847 22.9414C92.4816 22.4023 92.13 21.7695 92.13 21.043C92.13 20.1055 92.6222 19.3438 93.6066 18.7578C94.3331 18.3125 95.3292 18.043 96.5948 17.9492C96.4073 17.6211 96.3136 17.3164 96.3136 17.0352C96.3136 16.8711 96.3253 16.7539 96.3488 16.6836H96.2081C95.2238 16.6836 94.4386 16.3789 93.8527 15.7695C93.2902 15.207 93.0089 14.5391 93.0089 13.7656C93.0089 12.7812 93.4191 11.9492 94.2394 11.2695C95.1066 10.5898 96.2081 10.25 97.5441 10.25H102.255L100.146 11.4102H99.6886C100.228 12.043 100.497 12.7227 100.497 13.4492C100.497 13.8945 100.403 14.2988 100.216 14.6621C100.028 15.0254 99.8468 15.2891 99.671 15.4531C99.4952 15.6172 99.2433 15.8164 98.9152 16.0508V16.0859C98.6573 16.3438 98.5284 16.543 98.5284 16.6836C98.5284 16.8477 98.6456 17.0234 98.88 17.2109L99.5128 17.7031ZM95.1183 12.9219C95.1183 13.5312 95.2823 14.1289 95.6105 14.7148C95.9855 15.3477 96.4659 15.6641 97.0519 15.6641C97.4503 15.6641 97.7784 15.5352 98.0363 15.2773C98.2706 15.043 98.3878 14.6914 98.3878 14.2227C98.3878 13.6133 98.212 12.9922 97.8605 12.3594C97.462 11.7031 96.9933 11.375 96.4542 11.375C96.0089 11.375 95.6691 11.5273 95.4347 11.832C95.2238 12.0898 95.1183 12.4531 95.1183 12.9219ZM99.3722 20.9375C99.3722 20.6094 99.255 20.3164 99.0206 20.0586C98.7863 19.8008 98.3175 19.4375 97.6144 18.9688C97.5909 18.9688 97.5499 18.9629 97.4913 18.9512C97.4327 18.9395 97.38 18.9336 97.3331 18.9336C96.7472 18.9336 96.1613 19.0273 95.5753 19.2148C94.6847 19.543 94.2394 20.0352 94.2394 20.6914C94.2394 21.2305 94.4972 21.6641 95.0128 21.9922C95.5284 22.3203 96.2081 22.4844 97.0519 22.4844C97.7784 22.4844 98.3468 22.3438 98.757 22.0625C99.1671 21.7812 99.3722 21.4062 99.3722 20.9375ZM105.138 12.9922H107.88V14.1875H105.138V17.0352H103.943V14.1875H101.13V12.9922H103.943V10.25H105.138V12.9922Z" fill="white"/>
</g>
<path d="M141.316 11.375H141H140.684C139.09 11.375 137.121 11.4219 134.777 11.5156H134.742H134.707C134.309 11.5156 133.963 11.6855 133.67 12.0254C133.377 12.3652 133.23 12.7695 133.23 13.2383V13.2734V13.3086C133.16 14.5039 133.125 15.7344 133.125 17C133.125 18.2422 133.16 19.4609 133.23 20.6562V20.7266V20.7617C133.23 21.2305 133.395 21.6523 133.723 22.0273C134.004 22.332 134.332 22.4844 134.707 22.4844H134.742H134.777C137.215 22.5781 139.16 22.625 140.613 22.625H141H141.387C142.793 22.625 144.738 22.5781 147.223 22.4844H147.258H147.293C147.668 22.4844 147.996 22.332 148.277 22.0273C148.605 21.6523 148.77 21.2305 148.77 20.7617V20.7266V20.6562C148.84 19.4609 148.875 18.2422 148.875 17C148.875 15.7344 148.84 14.5039 148.77 13.3086V13.2734V13.2031C148.77 12.7344 148.623 12.3301 148.33 11.9902C148.037 11.6504 147.691 11.4805 147.293 11.4805H147.258H147.223C145.512 11.4102 143.543 11.375 141.316 11.375ZM141.316 10.25C144.012 10.25 146.004 10.2852 147.293 10.3555C148.02 10.3555 148.635 10.6309 149.139 11.1816C149.643 11.7324 149.895 12.4062 149.895 13.2031C149.965 14.4688 150 15.7344 150 17C150 18.2422 149.965 19.4961 149.895 20.7617C149.895 21.5586 149.643 22.2324 149.139 22.7832C148.635 23.334 148.02 23.6094 147.293 23.6094C145.582 23.7031 143.613 23.75 141.387 23.75H141H140.613C138.387 23.75 136.418 23.7031 134.707 23.6094C133.98 23.6094 133.365 23.334 132.861 22.7832C132.357 22.2324 132.105 21.5586 132.105 20.7617C132.035 19.4961 132 18.2422 132 17C132 16.1797 132.047 14.9258 132.141 13.2383C132.141 12.4414 132.387 11.7617 132.879 11.1992C133.371 10.6367 133.98 10.3555 134.707 10.3555C136.652 10.2852 138.645 10.25 140.684 10.25H141H141.316ZM139.277 20.4453V13.5195L144.375 17L139.277 20.4453Z" fill="white"/>
<g clip-path="url(#clip3_9_733)">
<path d="M188.75 11.9375V22.0977C188.75 22.543 188.586 22.9297 188.258 23.2578C187.93 23.5859 187.531 23.75 187.062 23.75H176.938C176.469 23.75 176.07 23.5859 175.742 23.2578C175.414 22.9297 175.25 22.543 175.25 22.0977V11.9375C175.25 11.4688 175.414 11.0703 175.742 10.7422C176.07 10.4141 176.469 10.25 176.938 10.25H187.062C187.531 10.25 187.93 10.4141 188.258 10.7422C188.586 11.0703 188.75 11.4688 188.75 11.9375ZM183.986 15.0137C183.986 15.0137 183.849 14.876 183.573 14.6006C183.298 14.3252 182.773 14.1875 182 14.1875C181.227 14.1875 180.564 14.4629 180.014 15.0137C179.463 15.5645 179.188 16.2266 179.188 17C179.188 17.7734 179.463 18.4355 180.014 18.9863C180.564 19.5371 181.227 19.8125 182 19.8125C182.773 19.8125 183.436 19.5371 183.986 18.9863C184.537 18.4355 184.812 17.7734 184.812 17C184.812 16.2266 184.537 15.5645 183.986 15.0137ZM187.625 13.625V11.9375C187.625 11.5625 187.438 11.375 187.062 11.375H185.375C185 11.375 184.812 11.5625 184.812 11.9375V13.625C184.812 14 185 14.1875 185.375 14.1875H187.062C187.438 14.1875 187.625 14 187.625 13.625ZM187.098 22.625C187.449 22.625 187.625 22.4375 187.625 22.0625V15.875H185.797C185.891 16.1797 185.938 16.5547 185.938 17C185.938 18.1016 185.562 19.0273 184.812 19.7773C184.039 20.5508 183.102 20.9375 182 20.9375C180.922 20.9375 179.996 20.5508 179.223 19.7773C178.449 19.0039 178.062 18.0781 178.062 17C178.062 16.6484 178.121 16.2734 178.238 15.875H176.375V22.0625C176.375 22.2266 176.434 22.3613 176.551 22.4668C176.668 22.5723 176.809 22.625 176.973 22.625H187.098Z" fill="white"/>
</g>
<defs>
<clipPath id="clip0_9_733">
<rect width="6.75" height="18" fill="white" transform="matrix(1 0 0 -1 14.63 26)"/>
</clipPath>
<clipPath id="clip1_9_733">
<rect width="16.59" height="18" fill="white" transform="matrix(1 0 0 -1 50.7 26)"/>
</clipPath>
<clipPath id="clip2_9_733">
<rect width="15.75" height="18" fill="white" transform="matrix(1 0 0 -1 92.13 26)"/>
</clipPath>
<clipPath id="clip3_9_733">
<rect width="13.5" height="18" fill="white" transform="matrix(1 0 0 -1 175.25 26)"/>
</clipPath>
</defs>
</svg>
