<svg width="71" height="21" viewBox="0 0 71 21" fill="none" xmlns="http://www.w3.org/2000/svg">
<g clip-path="url(#clip0_1_216)">
<path d="M12.6069 7.78125C13.2163 7.875 13.4507 8.625 13.0054 9.07031L10.5444 11.4844L11.1304 14.8828C11.2241 15.4922 10.5679 15.9609 10.0288 15.6797L6.98195 14.0625L3.91164 15.6797C3.37257 15.9609 2.71632 15.4922 2.81007 14.8828L3.39601 11.4844L0.935074 9.07031C0.489761 8.625 0.724136 7.875 1.33351 7.78125L4.77882 7.28906L6.30226 4.17188C6.58351 3.60938 7.38039 3.63281 7.6382 4.17188L9.18507 7.28906L12.6069 7.78125ZM9.3257 11.0859L11.6929 8.78906L8.43507 8.32031L6.98195 5.36719L5.50539 8.32031L2.24757 8.78906L4.61476 11.0859L4.05226 14.3203L6.98195 12.7969L9.8882 14.3203L9.3257 11.0859ZM26.1069 7.78125C26.7163 7.875 26.9507 8.625 26.5054 9.07031L24.0444 11.4844L24.6304 14.8828C24.7241 15.4922 24.0679 15.9609 23.5288 15.6797L20.4819 14.0625L17.4116 15.6797C16.8726 15.9609 16.2163 15.4922 16.3101 14.8828L16.896 11.4844L14.4351 9.07031C13.9898 8.625 14.2241 7.875 14.8335 7.78125L18.2788 7.28906L19.8023 4.17188C20.0835 3.60938 20.8804 3.63281 21.1382 4.17188L22.6851 7.28906L26.1069 7.78125ZM22.8257 11.0859L25.1929 8.78906L21.9351 8.32031L20.4819 5.36719L19.0054 8.32031L15.7476 8.78906L18.1148 11.0859L17.5523 14.3203L20.4819 12.7969L23.3882 14.3203L22.8257 11.0859ZM39.6069 7.78125C40.2163 7.875 40.4507 8.625 40.0054 9.07031L37.5444 11.4844L38.1304 14.8828C38.2241 15.4922 37.5679 15.9609 37.0288 15.6797L33.9819 14.0625L30.9116 15.6797C30.3726 15.9609 29.7163 15.4922 29.8101 14.8828L30.396 11.4844L27.9351 9.07031C27.4898 8.625 27.7241 7.875 28.3335 7.78125L31.7788 7.28906L33.3023 4.17188C33.5835 3.60938 34.3804 3.63281 34.6382 4.17188L36.1851 7.28906L39.6069 7.78125ZM36.3257 11.0859L38.6929 8.78906L35.4351 8.32031L33.9819 5.36719L32.5054 8.32031L29.2476 8.78906L31.6148 11.0859L31.0523 14.3203L33.9819 12.7969L36.8882 14.3203L36.3257 11.0859ZM53.1069 7.78125C53.7163 7.875 53.9507 8.625 53.5054 9.07031L51.0444 11.4844L51.6304 14.8828C51.7241 15.4922 51.0679 15.9609 50.5288 15.6797L47.4819 14.0625L44.4116 15.6797C43.8726 15.9609 43.2163 15.4922 43.3101 14.8828L43.896 11.4844L41.4351 9.07031C40.9898 8.625 41.2241 7.875 41.8335 7.78125L45.2788 7.28906L46.8023 4.17188C47.0835 3.60938 47.8804 3.63281 48.1382 4.17188L49.6851 7.28906L53.1069 7.78125ZM49.8257 11.0859L52.1929 8.78906L48.9351 8.32031L47.4819 5.36719L46.0054 8.32031L42.7476 8.78906L45.1148 11.0859L44.5523 14.3203L47.4819 12.7969L50.3882 14.3203L49.8257 11.0859ZM66.6069 7.78125C67.2163 7.875 67.4507 8.625 67.0054 9.07031L64.5444 11.4844L65.1304 14.8828C65.2241 15.4922 64.5679 15.9609 64.0288 15.6797L60.9819 14.0625L57.9116 15.6797C57.3726 15.9609 56.7163 15.4922 56.8101 14.8828L57.396 11.4844L54.9351 9.07031C54.4898 8.625 54.7241 7.875 55.3335 7.78125L58.7788 7.28906L60.3023 4.17188C60.5835 3.60938 61.3804 3.63281 61.6382 4.17188L63.1851 7.28906L66.6069 7.78125ZM63.3257 11.0859L65.6929 8.78906L62.4351 8.32031L60.9819 5.36719L59.5054 8.32031L56.2476 8.78906L58.6148 11.0859L58.0523 14.3203L60.9819 12.7969L63.8882 14.3203L63.3257 11.0859Z" fill="#F6BC3E"/>
<g clip-path="url(#clip1_1_216)">
<path d="M6.30226 4.17188C6.58351 3.60938 7.38039 3.63281 7.6382 4.17188L9.18507 7.28906L12.6069 7.78125C13.2163 7.875 13.4507 8.625 13.0054 9.07031L10.5444 11.4844L11.1304 14.8828C11.2241 15.4922 10.5679 15.9609 10.0288 15.6797L6.98195 14.0625L3.91164 15.6797C3.37257 15.9609 2.71632 15.4922 2.81007 14.8828L3.39601 11.4844L0.935074 9.07031C0.489761 8.625 0.724136 7.875 1.33351 7.78125L4.77882 7.28906L6.30226 4.17188ZM19.8023 4.17188C20.0835 3.60938 20.8804 3.63281 21.1382 4.17188L22.6851 7.28906L26.1069 7.78125C26.7163 7.875 26.9507 8.625 26.5054 9.07031L24.0444 11.4844L24.6304 14.8828C24.7241 15.4922 24.0679 15.9609 23.5288 15.6797L20.4819 14.0625L17.4116 15.6797C16.8726 15.9609 16.2163 15.4922 16.3101 14.8828L16.896 11.4844L14.4351 9.07031C13.9898 8.625 14.2241 7.875 14.8335 7.78125L18.2788 7.28906L19.8023 4.17188ZM33.3023 4.17188C33.5835 3.60938 34.3804 3.63281 34.6382 4.17188L36.1851 7.28906L39.6069 7.78125C40.2163 7.875 40.4507 8.625 40.0054 9.07031L37.5444 11.4844L38.1304 14.8828C38.2241 15.4922 37.5679 15.9609 37.0288 15.6797L33.9819 14.0625L30.9116 15.6797C30.3726 15.9609 29.7163 15.4922 29.8101 14.8828L30.396 11.4844L27.9351 9.07031C27.4898 8.625 27.7241 7.875 28.3335 7.78125L31.7788 7.28906L33.3023 4.17188ZM46.8023 4.17188C47.0835 3.60938 47.8804 3.63281 48.1382 4.17188L49.6851 7.28906L53.1069 7.78125C53.7163 7.875 53.9507 8.625 53.5054 9.07031L51.0444 11.4844L51.6304 14.8828C51.7241 15.4922 51.0679 15.9609 50.5288 15.6797L47.4819 14.0625L44.4116 15.6797C43.8726 15.9609 43.2163 15.4922 43.3101 14.8828L43.896 11.4844L41.4351 9.07031C40.9898 8.625 41.2241 7.875 41.8335 7.78125L45.2788 7.28906L46.8023 4.17188ZM60.3023 4.17188C60.5835 3.60938 61.3804 3.63281 61.6382 4.17188L63.1851 7.28906L66.6069 7.78125C67.2163 7.875 67.4507 8.625 67.0054 9.07031L64.5444 11.4844L65.1304 14.8828C65.2241 15.4922 64.5679 15.9609 64.0288 15.6797L60.9819 14.0625L57.9116 15.6797C57.3726 15.9609 56.7163 15.4922 56.8101 14.8828L57.396 11.4844L54.9351 9.07031C54.4898 8.625 54.7241 7.875 55.3335 7.78125L58.7788 7.28906L60.3023 4.17188Z" fill="#F6BC3E"/>
</g>
</g>
<defs>
<clipPath id="clip0_1_216">
<rect width="70" height="20" fill="white" transform="translate(0.0800018 0.25)"/>
</clipPath>
<clipPath id="clip1_1_216">
<rect width="60.89" height="18" fill="white" transform="translate(0.0800018 0.25)"/>
</clipPath>
</defs>
</svg>
