<svg width="45" height="45" viewBox="0 0 45 45" fill="none" xmlns="http://www.w3.org/2000/svg">
<g clip-path="url(#clip0_9_41)">
<path d="M13.5 20.418H20.918V13H13.5V20.418ZM14.5547 14.0547H19.8633V19.3633H14.5547V14.0547ZM24.082 13V20.418H31.5V13H24.082ZM30.4453 19.3633H25.1367V14.0547H30.4453V19.3633ZM13.5 31H20.918V23.582H13.5V31ZM14.5547 24.6367H19.8633V29.9453H14.5547V24.6367ZM24.082 31H31.5V23.582H24.082V31ZM25.1367 24.6367H30.4453V29.9453H25.1367V24.6367Z" fill="#292B2C"/>
</g>
<rect x="0.5" y="0.5" width="44" height="44" rx="3.5" stroke="#CED4DA"/>
<defs>
<clipPath id="clip0_9_41">
<rect width="18" height="18" fill="white" transform="matrix(1 0 0 -1 13.5 31)"/>
</clipPath>
</defs>
</svg>
