<svg width="46" height="65" viewBox="0 0 46 65" fill="none" xmlns="http://www.w3.org/2000/svg">
<g clip-path="url(#clip0_19_189)">
<path d="M21.8694 35.4387C22.2752 35.4387 22.4781 35.6416 22.4781 36.0474C22.4781 36.4532 22.2752 36.6561 21.8694 36.6561H18.1303C17.9564 36.6561 17.8115 36.5981 17.6955 36.4822C17.4057 36.1923 17.4057 35.9024 17.6955 35.6126L20.826 32.83C21.4637 32.2503 21.5216 31.6126 20.9999 30.9169C20.4781 30.2213 19.8405 30.1343 19.0868 30.6561C18.6231 31.0039 18.3912 31.1778 18.3912 31.1778C18.0434 31.2358 17.8115 31.1198 17.6955 30.83C17.6376 30.5981 17.8115 30.2793 18.2173 29.8735C18.681 29.4677 19.2608 29.2648 19.9564 29.2648C20.6521 29.2648 21.2608 29.5546 21.7825 30.1343C22.2463 30.5981 22.4781 31.1488 22.4781 31.7865C22.4781 32.5401 22.1883 33.1778 21.6086 33.6995L19.6086 35.4387H21.8694ZM27.7825 34.1343C28.1883 34.1343 28.3912 34.3227 28.3912 34.6995C28.3912 35.0764 28.1883 35.2648 27.7825 35.2648H27.6955V36.0474C27.6955 36.4532 27.4926 36.6561 27.0868 36.6561C26.681 36.6561 26.4781 36.4532 26.4781 36.0474V35.2648H23.2608C22.9709 35.2648 22.7825 35.1488 22.6955 34.9169C22.6086 34.6851 22.6231 34.4822 22.739 34.3082C22.739 34.3082 22.826 34.2068 22.9999 34.0039C23.1738 33.801 23.3622 33.5546 23.5651 33.2648C23.768 32.9749 24.0144 32.6706 24.3042 32.3517C24.5941 32.0329 24.8694 31.6995 25.1303 31.3517C25.3912 31.0039 25.6376 30.6995 25.8694 30.4387C26.1013 30.1778 26.2897 29.9459 26.4347 29.743C26.5796 29.5401 26.6521 29.4387 26.6521 29.4387C26.71 29.3807 26.739 29.3517 26.739 29.3517C26.9709 29.2358 27.1883 29.2358 27.3912 29.3517C27.5941 29.4677 27.6955 29.6416 27.6955 29.8735V34.1343H27.7825ZM26.4781 31.5256L24.3912 34.1343H26.4781V31.5256ZM41.7825 25.4387C42.768 25.5546 43.5941 26.0039 44.2608 26.7865C44.9274 27.5691 45.2608 28.4532 45.2608 29.4387V37.4387C45.2608 37.9024 45.1738 38.3662 44.9999 38.83C44.826 39.2937 44.5796 39.714 44.2608 40.0908C43.9419 40.4677 43.5651 40.772 43.1303 41.0039C42.6955 41.2358 42.2463 41.3807 41.7825 41.4387C41.2028 44.859 39.5506 47.6561 36.826 49.83C34.1013 52.0039 30.9709 53.1488 27.4347 53.2648C27.1448 54.1923 26.5071 54.6561 25.5216 54.6561H20.4781C19.9564 54.6561 19.4926 54.4532 19.0868 54.0474C18.681 53.6416 18.4781 53.1633 18.4781 52.6126C18.4781 52.0619 18.681 51.5836 19.0868 51.1778C19.4926 50.772 19.9564 50.5691 20.4781 50.5691H25.5216C26.5071 50.5691 27.1448 51.0329 27.4347 51.9604C29.5216 51.9024 31.4781 51.4387 33.3042 50.5691C35.1303 49.6995 36.681 48.4822 37.9564 46.9169C39.2318 45.3517 40.0723 43.5546 40.4781 41.5256H39.6955C39.5216 42.2213 39.1013 42.6706 38.4347 42.8735C37.768 43.0764 37.1303 43.0039 36.5216 42.6561C35.9129 42.3082 35.6086 41.7575 35.6086 41.0039V25.8735C35.6086 25.1198 35.9129 24.5691 36.5216 24.2213C37.1303 23.8735 37.768 23.801 38.4347 24.0039C39.1013 24.2068 39.5216 24.6561 39.6955 25.3517H40.4781C40.0723 23.3807 39.3187 21.5256 38.2173 19.7865C37.1158 18.0474 35.7825 16.5691 34.2173 15.3517C32.6521 14.1343 30.8984 13.1778 28.9564 12.4822C27.0144 11.7865 25.0289 11.4387 22.9999 11.4387C18.826 11.4387 15.0723 12.743 11.739 15.3517C8.40568 17.9604 6.33322 21.2937 5.52162 25.3517H6.30423C6.47814 24.6561 6.89843 24.2068 7.5651 24.0039C8.23177 23.801 8.86945 23.8735 9.47814 24.2213C10.0868 24.5691 10.3912 25.1198 10.3912 25.8735V41.0039C10.3912 41.7575 10.0868 42.3082 9.47814 42.6561C8.86945 43.0039 8.23177 43.0764 7.5651 42.8735C6.89843 42.6706 6.47814 42.2213 6.30423 41.5256H4.82597C3.72452 41.5256 2.768 41.1198 1.95641 40.3082C1.14481 39.4966 0.739014 38.5401 0.739014 37.4387V34.9169C0.739014 34.5111 0.956405 34.3082 1.39119 34.3082C1.82597 34.3082 2.04336 34.5111 2.04336 34.9169V37.4387C2.04336 38.1923 2.31872 38.8445 2.86945 39.3952C3.42017 39.9459 4.07235 40.2213 4.82597 40.2213H6.21727V26.6561H4.82597C4.3622 26.6561 3.91293 26.7865 3.47814 27.0474C3.04336 27.3082 2.69554 27.6416 2.43467 28.0474C2.1738 28.4532 2.04336 28.9169 2.04336 29.4387V31.6126C2.04336 32.0184 1.82597 32.2213 1.39119 32.2213C0.956405 32.2213 0.739014 32.0184 0.739014 31.6126V29.4387C0.739014 28.4532 1.07235 27.5691 1.73901 26.7865C2.40568 26.0039 3.23177 25.5546 4.21727 25.4387C5.02887 21.0329 7.23177 17.3807 10.826 14.4822C14.4202 11.5836 18.4781 10.1343 22.9999 10.1343C25.2028 10.1343 27.3622 10.5111 29.4781 11.2648C31.5941 12.0184 33.4926 13.0619 35.1738 14.3952C36.855 15.7285 38.2752 17.3517 39.4347 19.2648C40.5941 21.1778 41.3767 23.2358 41.7825 25.4387ZM7.52162 25.8735V41.0039C7.52162 41.4677 7.78249 41.6995 8.30423 41.6995C8.82597 41.6995 9.08684 41.4677 9.08684 41.0039V25.8735C9.08684 25.4097 8.82597 25.1778 8.30423 25.1778C7.78249 25.1778 7.52162 25.4097 7.52162 25.8735ZM25.5216 53.3517C25.9854 53.3517 26.2173 53.1053 26.2173 52.6126C26.2173 52.1198 25.9854 51.8735 25.5216 51.8735H20.4781C20.0144 51.8735 19.7825 52.1198 19.7825 52.6126C19.7825 53.1053 20.0144 53.3517 20.4781 53.3517H25.5216ZM38.4781 41.0039V25.8735C38.4781 25.4097 38.2173 25.1778 37.6955 25.1778C37.1738 25.1778 36.9129 25.4097 36.9129 25.8735V41.0039C36.9129 41.4677 37.1738 41.6995 37.6955 41.6995C38.2173 41.6995 38.4781 41.4677 38.4781 41.0039ZM43.9564 37.4387V29.4387C43.9564 28.6851 43.681 28.0329 43.1303 27.4822C42.5796 26.9314 41.9274 26.6561 41.1738 26.6561H39.7825V40.2213H41.1738C41.6376 40.2213 42.0868 40.0908 42.5216 39.83C42.9564 39.5691 43.3042 39.2213 43.5651 38.7865C43.826 38.3517 43.9564 37.9024 43.9564 37.4387ZM26.3912 43.0908C25.2897 43.4387 24.1593 43.6126 22.9999 43.6126C20.0434 43.6126 17.5071 42.5691 15.3912 40.4822C13.2752 38.3952 12.2173 35.8735 12.2173 32.9169C12.2173 31.0039 12.6955 29.2213 13.6521 27.5691C14.6086 25.9169 15.9129 24.6126 17.5651 23.6561C19.2173 22.6995 21.0289 22.2213 22.9999 22.2213C25.2608 22.2213 27.3187 22.859 29.1738 24.1343C29.3477 24.3082 29.4202 24.5111 29.3912 24.743C29.3622 24.9749 29.2463 25.1488 29.0434 25.2648C28.8405 25.3807 28.6231 25.3807 28.3912 25.2648C26.768 24.1053 24.9709 23.5256 22.9999 23.5256C20.3912 23.5256 18.1593 24.4532 16.3042 26.3082C14.4492 28.1633 13.5216 30.3807 13.5216 32.9604C13.5216 35.5401 14.4492 37.743 16.3042 39.5691C18.1593 41.3952 20.3912 42.3082 22.9999 42.3082C24.1013 42.3082 25.1738 42.1343 26.2173 41.7865C26.3332 41.7285 26.4781 41.7285 26.6521 41.7865L29.8694 43.1778V39.6126C29.8694 39.4387 29.9274 39.2937 30.0434 39.1778C31.6665 37.3807 32.4781 35.2937 32.4781 32.9169C32.4781 30.9459 31.8984 29.1488 30.739 27.5256C30.3912 27.0619 30.4781 26.714 30.9999 26.4822C31.3477 26.3662 31.6086 26.4532 31.7825 26.743C33.1158 28.5981 33.7825 30.6561 33.7825 32.9169C33.7825 35.5256 32.9129 37.8445 31.1738 39.8735V44.2213C31.1738 44.4532 31.0868 44.6271 30.9129 44.743C30.739 44.859 30.5361 44.888 30.3042 44.83L26.3912 43.0908Z" fill="#687188"/>
</g>
<defs>
<clipPath id="clip0_19_189">
<rect width="46" height="46" fill="white" transform="matrix(1 0 0 -1 0 54.83)"/>
</clipPath>
</defs>
</svg>
