<svg width="81" height="81" viewBox="0 0 81 81" fill="none" xmlns="http://www.w3.org/2000/svg">
<g clip-path="url(#clip0_15_34)">
<path d="M55.2087 25.2434C55.0759 25.177 54.9376 25.1383 54.7937 25.1272C54.6498 25.1161 54.5115 25.1438 54.3787 25.2102L44.5505 30.1243L34.7224 25.2102C34.6117 25.1438 34.49 25.1106 34.3572 25.1106C34.2244 25.1106 34.0916 25.1438 33.9587 25.2102L23.7654 30.3235C23.6326 30.3899 23.5219 30.4895 23.4333 30.6223C23.3448 30.7551 23.3005 30.899 23.3005 31.054V56.554C23.3005 56.7089 23.3393 56.8528 23.4167 56.9856C23.4942 57.1184 23.5883 57.218 23.699 57.2844C23.7654 57.3287 23.8373 57.3619 23.9148 57.384C23.9923 57.4062 24.0753 57.4172 24.1638 57.4172C24.2302 57.4172 24.2911 57.4117 24.3464 57.4006C24.4018 57.3896 24.4626 57.3619 24.5291 57.3176L34.3572 52.4036L44.1853 57.3176C44.296 57.384 44.4177 57.4172 44.5505 57.4172C44.6833 57.4172 44.8162 57.384 44.949 57.3176L55.1423 52.2375C55.2751 52.149 55.3858 52.0383 55.4744 51.9055C55.5629 51.7727 55.6072 51.6288 55.6072 51.4739V25.9739C55.6072 25.8189 55.5684 25.6806 55.491 25.5588C55.4135 25.4371 55.3194 25.3319 55.2087 25.2434ZM33.4939 50.9426L24.9939 55.1926V31.5852L33.4939 27.3352V50.9426ZM35.1873 27.3352L43.6873 31.5852V55.1926L35.1873 50.9426V27.3352ZM53.9138 50.9426L45.4138 55.1926V31.5852L53.9138 27.3352V50.9426Z" fill="#FF324D"/>
</g>
<rect x="0.800537" y="0.917236" width="79" height="79" rx="39.5" stroke="#FF324D"/>
<defs>
<clipPath id="clip0_15_34">
<rect width="34" height="34" fill="white" transform="matrix(1 0 0 -1 23.3005 57.4172)"/>
</clipPath>
</defs>
</svg>
