<svg width="60" height="61" viewBox="0 0 60 61" fill="none" xmlns="http://www.w3.org/2000/svg">
<rect y="0.0500488" width="60" height="60" rx="30" fill="#FF324D"/>
<g clip-path="url(#clip0_19_49)">
<path d="M41.2969 20.175L39.3281 18.1594C38.5312 17.3625 37.125 17.3625 36.3281 18.1594L25.6875 28.8L23.25 36.2532L30.6562 33.7688L41.2969 23.1282C41.6719 22.7532 41.9062 22.2375 41.9062 21.6282C41.9062 21.0657 41.6719 20.55 41.2969 20.175ZM25.875 32.7375L26.7656 29.9719L29.4844 32.6907L26.7656 33.6282L25.875 32.7375ZM27.6562 28.8469L33.2812 23.2219L36.2344 26.175L30.6094 31.8L27.6562 28.8469ZM34.2656 22.1907L35.2969 21.2063L38.2969 24.1594L37.2656 25.1907L34.2656 22.1907ZM40.3125 22.1438L39.2812 23.175L36.2812 20.175L37.3125 19.1907C37.5938 18.9094 38.0625 18.9094 38.2969 19.1907L40.3125 21.1594C40.4062 21.3 40.5 21.4407 40.5 21.6282C40.5 21.8157 40.4062 22.0032 40.3125 22.1438ZM39.1875 28.1438H40.5938V41.55H18V20.3625H28.5938V21.7688H19.4062V40.1438H39.1875V28.1438Z" fill="white"/>
</g>
<defs>
<clipPath id="clip0_19_49">
<rect width="24" height="25" fill="white" transform="matrix(1 0 0 -1 18 42.05)"/>
</clipPath>
</defs>
</svg>
