<svg width="81" height="81" viewBox="0 0 81 81" fill="none" xmlns="http://www.w3.org/2000/svg">
<g clip-path="url(#clip0_15_45)">
<path d="M53.7478 32.8469L41.3298 25.2766C41.0863 25.1217 40.7986 24.9999 40.4666 24.9114C40.1345 24.8228 39.7914 24.7786 39.4373 24.7786C39.1052 24.7786 38.7732 24.8228 38.4412 24.9114C38.1091 24.9999 37.8103 25.1217 37.5447 25.2766L25.1599 32.8469C24.6287 33.179 24.186 33.6604 23.8318 34.2913C23.4776 34.9221 23.3005 35.5474 23.3005 36.1672V51.4739C23.3005 52.1822 23.5496 52.7854 24.0476 53.2834C24.5457 53.7815 25.1488 54.0305 25.8572 54.0305H53.0505C53.7589 54.0305 54.3621 53.7815 54.8601 53.2834C55.3582 52.7854 55.6072 52.1822 55.6072 51.4739V36.1672C55.6072 35.5474 55.4301 34.9221 55.0759 34.2913C54.7218 33.6604 54.2791 33.179 53.7478 32.8469ZM26.0564 34.3079L38.4412 26.7375C38.574 26.649 38.7289 26.5826 38.906 26.5383C39.0831 26.4941 39.2602 26.4719 39.4373 26.4719C39.6365 26.4719 39.8246 26.4941 40.0017 26.5383C40.1788 26.5826 40.3337 26.649 40.4666 26.7375L52.8513 34.3079C52.9841 34.3964 53.1114 34.5071 53.2332 34.6399C53.3549 34.7727 53.46 34.9166 53.5486 35.0715L40.4001 43.8704C40.1567 44.0253 39.8412 44.1028 39.4539 44.1028C39.0665 44.1028 38.7511 44.0253 38.5076 43.8704L25.3259 35.0715C25.4366 34.9166 25.5528 34.7727 25.6746 34.6399C25.7963 34.5071 25.9236 34.3964 26.0564 34.3079ZM53.0505 52.304H25.8572C25.6137 52.304 25.4089 52.2209 25.2429 52.0549C25.0769 51.8889 24.9939 51.6952 24.9939 51.4739V36.8977L37.5779 45.2649C37.8435 45.442 38.1368 45.5748 38.4578 45.6633C38.7787 45.7519 39.1052 45.7961 39.4373 45.7961C39.7914 45.7961 40.129 45.7519 40.45 45.6633C40.7709 45.5748 41.0642 45.442 41.3298 45.2649L53.9138 36.8977V51.4739C53.9138 51.6952 53.8308 51.8889 53.6648 52.0549C53.4988 52.2209 53.294 52.304 53.0505 52.304Z" fill="#FF324D"/>
</g>
<rect x="0.800537" y="0.917236" width="79" height="79" rx="39.5" stroke="#FF324D"/>
<defs>
<clipPath id="clip0_15_45">
<rect width="34" height="34" fill="white" transform="matrix(1 0 0 -1 23.3005 57.4172)"/>
</clipPath>
</defs>
</svg>
