<svg width="41" height="42" viewBox="0 0 41 42" fill="none" xmlns="http://www.w3.org/2000/svg">
<g clip-path="url(#clip0_1_437)">
<rect y="0.299805" width="36" height="36" rx="18" fill="#DD4B39"/>
<g clip-path="url(#clip1_1_437)">
<path d="M17.5128 18.0029C17.8644 18.2842 18.1281 18.5068 18.3038 18.6709C18.4796 18.835 18.6554 19.0928 18.8312 19.4443C19.007 19.7959 19.0948 20.1709 19.0948 20.5693C19.0948 21.5068 18.6613 22.3213 17.7941 23.0127C16.9269 23.7041 15.7316 24.0498 14.2081 24.0498C12.8956 24.0498 11.8878 23.7803 11.1847 23.2412C10.4816 22.7021 10.13 22.0693 10.13 21.3428C10.13 20.4053 10.6222 19.6436 11.6066 19.0576C12.3331 18.6123 13.3292 18.3428 14.5948 18.249C14.4073 17.9209 14.3136 17.6162 14.3136 17.335C14.3136 17.1709 14.3253 17.0537 14.3488 16.9834H14.2081C13.2238 16.9834 12.4386 16.6787 11.8527 16.0693C11.2902 15.5068 11.0089 14.8389 11.0089 14.0654C11.0089 13.0811 11.4191 12.249 12.2394 11.5693C13.1066 10.8896 14.2081 10.5498 15.5441 10.5498H20.255L18.1456 11.71H17.6886C18.2277 12.3428 18.4972 13.0225 18.4972 13.749C18.4972 14.1943 18.4034 14.5986 18.2159 14.9619C18.0284 15.3252 17.8468 15.5889 17.671 15.7529C17.4952 15.917 17.2433 16.1162 16.9152 16.3506V16.3857C16.6573 16.6436 16.5284 16.8428 16.5284 16.9834C16.5284 17.1475 16.6456 17.3232 16.88 17.5107L17.5128 18.0029ZM13.1183 13.2217C13.1183 13.8311 13.2823 14.4287 13.6105 15.0146C13.9855 15.6475 14.4659 15.9639 15.0519 15.9639C15.4503 15.9639 15.7784 15.835 16.0363 15.5771C16.2706 15.3428 16.3878 14.9912 16.3878 14.5225C16.3878 13.9131 16.212 13.292 15.8605 12.6592C15.462 12.0029 14.9933 11.6748 14.4542 11.6748C14.0089 11.6748 13.6691 11.8271 13.4347 12.1318C13.2238 12.3896 13.1183 12.7529 13.1183 13.2217ZM17.3722 21.2373C17.3722 20.9092 17.255 20.6162 17.0206 20.3584C16.7863 20.1006 16.3175 19.7373 15.6144 19.2686C15.5909 19.2686 15.5499 19.2627 15.4913 19.251C15.4327 19.2393 15.38 19.2334 15.3331 19.2334C14.7472 19.2334 14.1613 19.3271 13.5753 19.5146C12.6847 19.8428 12.2394 20.335 12.2394 20.9912C12.2394 21.5303 12.4972 21.9639 13.0128 22.292C13.5284 22.6201 14.2081 22.7842 15.0519 22.7842C15.7784 22.7842 16.3468 22.6436 16.757 22.3623C17.1671 22.0811 17.3722 21.7061 17.3722 21.2373ZM23.1378 13.292H25.88V14.4873H23.1378V17.335H21.9425V14.4873H19.13V13.292H21.9425V10.5498H23.1378V13.292Z" fill="white"/>
</g>
</g>
<defs>
<clipPath id="clip0_1_437">
<rect y="0.299805" width="36" height="36" rx="18" fill="white"/>
</clipPath>
<clipPath id="clip1_1_437">
<rect width="15.75" height="18" fill="white" transform="matrix(1 0 0 -1 10.13 26.2998)"/>
</clipPath>
</defs>
</svg>
