<svg width="81" height="81" viewBox="0 0 81 81" fill="none" xmlns="http://www.w3.org/2000/svg">
<g clip-path="url(#clip0_15_57)">
<path d="M47.9705 57.4172H25.8572C25.1488 57.4172 24.5457 57.1682 24.0476 56.6702C23.5496 56.1721 23.3005 55.5689 23.3005 54.8606V25.9739C23.3005 25.2655 23.5496 24.6624 24.0476 24.1643C24.5457 23.6663 25.1488 23.4172 25.8572 23.4172H47.9705C48.6788 23.4172 49.282 23.6663 49.78 24.1643C50.2781 24.6624 50.5271 25.2655 50.5271 25.9739V54.8606C50.5271 55.5689 50.2781 56.1721 49.78 56.6702C49.282 57.1682 48.6788 57.4172 47.9705 57.4172ZM25.8572 25.1106C25.6358 25.1106 25.4421 25.1936 25.2761 25.3596C25.1101 25.5256 25.0271 25.7304 25.0271 25.9739V54.8606C25.0271 55.1041 25.1101 55.3088 25.2761 55.4749C25.4421 55.6409 25.6358 55.7239 25.8572 55.7239H47.9705C48.1918 55.7239 48.3855 55.6409 48.5515 55.4749C48.7175 55.3088 48.8005 55.1041 48.8005 54.8606V25.9739C48.8005 25.7304 48.7175 25.5256 48.5515 25.3596C48.3855 25.1936 48.1918 25.1106 47.9705 25.1106H25.8572ZM37.7771 54.0305H36.0505C35.8292 54.0305 35.6355 53.9475 35.4695 53.7815C35.3035 53.6155 35.2205 53.4107 35.2205 53.1672C35.2205 52.9237 35.3035 52.719 35.4695 52.553C35.6355 52.387 35.8292 52.304 36.0505 52.304H37.7771C37.9985 52.304 38.1921 52.387 38.3582 52.553C38.5242 52.719 38.6072 52.9237 38.6072 53.1672C38.6072 53.4107 38.5242 53.6155 38.3582 53.7815C38.1921 53.9475 37.9985 54.0305 37.7771 54.0305ZM46.2771 50.6106H27.5505C27.3292 50.6106 27.1355 50.5276 26.9695 50.3616C26.8035 50.1956 26.7205 50.0019 26.7205 49.7805V27.6672C26.7205 27.4237 26.8035 27.219 26.9695 27.053C27.1355 26.887 27.3292 26.804 27.5505 26.804H46.2771C46.4985 26.804 46.6921 26.887 46.8582 27.053C47.0242 27.219 47.1072 27.4237 47.1072 27.6672V49.7805C47.1072 50.0019 47.0242 50.1956 46.8582 50.3616C46.6921 50.5276 46.4985 50.6106 46.2771 50.6106ZM28.4138 48.9172H45.4138V28.5305H28.4138V48.9172Z" fill="#FF324D"/>
</g>
<rect x="0.800537" y="0.917236" width="79" height="79" rx="39.5" stroke="#FF324D"/>
<defs>
<clipPath id="clip0_15_57">
<rect width="34" height="34" fill="white" transform="matrix(1 0 0 -1 23.3005 57.4172)"/>
</clipPath>
</defs>
</svg>
