<svg width="21" height="21" viewBox="0 0 21 21" fill="none" xmlns="http://www.w3.org/2000/svg">
<g clip-path="url(#clip0_19_427)">
<path d="M19.5073 19.8903L13.5698 13.4059C14.2339 12.7028 14.745 11.9085 15.103 11.0231C15.4611 10.1377 15.6401 9.20667 15.6401 8.2301C15.6401 7.2275 15.4513 6.27047 15.0737 5.35901C14.6961 4.44755 14.1558 3.63375 13.4526 2.9176C12.7365 2.21448 11.9227 1.67411 11.0112 1.29651C10.0998 0.918905 9.14274 0.730103 8.14014 0.730103C7.13753 0.730103 6.1805 0.918905 5.26904 1.29651C4.35758 1.67411 3.55029 2.21448 2.84717 2.9176C2.13102 3.63375 1.58415 4.44755 1.20654 5.35901C0.828939 6.27047 0.640137 7.2275 0.640137 8.2301C0.640137 9.23271 0.828939 10.1897 1.20654 11.1012C1.58415 12.0127 2.13102 12.8265 2.84717 13.5426C3.55029 14.2457 4.35758 14.7861 5.26904 15.1637C6.1805 15.5413 7.13753 15.7301 8.14014 15.7301C8.99951 15.7301 9.82959 15.5901 10.6304 15.3102C11.4312 15.0302 12.1636 14.6233 12.8276 14.0895L18.7651 20.5739C18.8172 20.6259 18.8758 20.665 18.9409 20.691C19.006 20.7171 19.0711 20.7301 19.1362 20.7301C19.2013 20.7301 19.2632 20.7203 19.3218 20.7008C19.3804 20.6813 19.4357 20.6455 19.4878 20.5934C19.5789 20.5022 19.6278 20.3883 19.6343 20.2516C19.6408 20.1149 19.5985 19.9944 19.5073 19.8903ZM1.63623 8.2301C1.63623 7.33167 1.80876 6.48857 2.15381 5.70081C2.49886 4.91304 2.96436 4.2262 3.55029 3.64026C4.13623 3.05432 4.82308 2.58883 5.61084 2.24377C6.3986 1.89872 7.2417 1.7262 8.14014 1.7262C9.03857 1.7262 9.88167 1.89872 10.6694 2.24377C11.4572 2.58883 12.144 3.05432 12.73 3.64026C13.3159 4.2262 13.7814 4.91304 14.1265 5.70081C14.4715 6.48857 14.644 7.33167 14.644 8.2301C14.644 9.12854 14.4715 9.97164 14.1265 10.7594C13.7814 11.5472 13.3159 12.234 12.73 12.8199C12.144 13.4059 11.4572 13.8714 10.6694 14.2164C9.88167 14.5615 9.03857 14.734 8.14014 14.734C7.2417 14.734 6.3986 14.5615 5.61084 14.2164C4.82308 13.8714 4.13623 13.4059 3.55029 12.8199C2.96436 12.234 2.49886 11.5472 2.15381 10.7594C1.80876 9.97164 1.63623 9.12854 1.63623 8.2301Z" fill="#292B2C"/>
</g>
<defs>
<clipPath id="clip0_19_427">
<rect width="20" height="20" fill="white" transform="matrix(1 0 0 -1 0.640137 20.7301)"/>
</clipPath>
</defs>
</svg>
