<svg width="21" height="21" viewBox="0 0 21 21" fill="none" xmlns="http://www.w3.org/2000/svg">
<g clip-path="url(#clip0_19_435)">
<path d="M7.65186 20.66C7.09196 20.66 6.6167 20.4647 6.22607 20.0741C5.83545 19.6835 5.64014 19.2147 5.64014 18.6678C5.64014 18.108 5.83545 17.6327 6.22607 17.2421C6.6167 16.8514 7.09196 16.6561 7.65186 16.6561C8.19873 16.6561 8.66748 16.8514 9.05811 17.2421C9.44873 17.6327 9.64404 18.108 9.64404 18.6678C9.64404 19.2147 9.44873 19.6835 9.05811 20.0741C8.66748 20.4647 8.19873 20.66 7.65186 20.66ZM7.65186 17.6522C7.3654 17.6522 7.12451 17.7499 6.9292 17.9452C6.73389 18.1405 6.63623 18.3814 6.63623 18.6678C6.63623 18.9413 6.73389 19.1757 6.9292 19.371C7.12451 19.5663 7.3654 19.6639 7.65186 19.6639C7.92529 19.6639 8.15967 19.5663 8.35498 19.371C8.55029 19.1757 8.64795 18.9413 8.64795 18.6678C8.64795 18.3814 8.55029 18.1405 8.35498 17.9452C8.15967 17.7499 7.92529 17.6522 7.65186 17.6522ZM14.644 20.66C14.0972 20.66 13.6284 20.4647 13.2378 20.0741C12.8472 19.6835 12.6519 19.2147 12.6519 18.6678C12.6519 18.108 12.8472 17.6327 13.2378 17.2421C13.6284 16.8514 14.0972 16.6561 14.644 16.6561C15.1909 16.6561 15.6597 16.8514 16.0503 17.2421C16.4409 17.6327 16.6362 18.108 16.6362 18.6678C16.6362 19.2147 16.4409 19.6835 16.0503 20.0741C15.6597 20.4647 15.1909 20.66 14.644 20.66ZM14.644 17.6522C14.3706 17.6522 14.1362 17.7499 13.9409 17.9452C13.7456 18.1405 13.648 18.3814 13.648 18.6678C13.648 18.9413 13.7456 19.1757 13.9409 19.371C14.1362 19.5663 14.3706 19.6639 14.644 19.6639C14.9175 19.6639 15.1519 19.5663 15.3472 19.371C15.5425 19.1757 15.6401 18.9413 15.6401 18.6678C15.6401 18.3814 15.5425 18.1405 15.3472 17.9452C15.1519 17.7499 14.9175 17.6522 14.644 17.6522ZM17.1831 5.13269C17.0529 4.97644 16.8999 4.85925 16.7241 4.78113C16.5483 4.703 16.3563 4.66394 16.148 4.66394H3.90186L3.8042 4.05847C3.7391 3.66785 3.54704 3.33582 3.22803 3.06238C2.90902 2.78894 2.54769 2.65222 2.14404 2.65222H1.14795C1.00472 2.65222 0.884277 2.70105 0.786621 2.79871C0.688965 2.89636 0.640137 3.01681 0.640137 3.16003C0.640137 3.30326 0.688965 3.42371 0.786621 3.52136C0.884277 3.61902 1.00472 3.66785 1.14795 3.66785H2.14404C2.30029 3.66785 2.44352 3.72318 2.57373 3.83386C2.70394 3.94454 2.78206 4.078 2.80811 4.23425L4.48779 14.2538C4.5529 14.6444 4.74495 14.9764 5.06397 15.2499C5.38298 15.5233 5.7443 15.66 6.14795 15.66H16.148C16.2782 15.66 16.3921 15.6112 16.4897 15.5135C16.5874 15.4159 16.6362 15.2955 16.6362 15.1522C16.6362 15.022 16.5874 14.9081 16.4897 14.8104C16.3921 14.7128 16.2782 14.6639 16.148 14.6639H6.14795C5.9917 14.6639 5.84522 14.6053 5.7085 14.4882C5.57178 14.371 5.4904 14.2408 5.46436 14.0975L5.22998 12.6132L15.1909 11.7538C15.5815 11.7147 15.9331 11.552 16.2456 11.2655C16.5581 10.979 16.7404 10.6405 16.7925 10.2499L17.4761 6.22644C17.5021 6.03113 17.4924 5.83582 17.4468 5.6405C17.4012 5.44519 17.3133 5.27592 17.1831 5.13269ZM16.48 6.07019L15.8159 10.0936C15.7899 10.2499 15.7052 10.3931 15.562 10.5233C15.4188 10.6535 15.269 10.7316 15.1128 10.7577L5.0542 11.6171L4.05811 5.66003H16.148C16.2 5.66003 16.2521 5.6698 16.3042 5.68933C16.3563 5.70886 16.3953 5.73816 16.4214 5.77722C16.4474 5.81628 16.467 5.8586 16.48 5.90417C16.493 5.94975 16.493 6.00509 16.48 6.07019Z" fill="#292B2C"/>
</g>
<defs>
<clipPath id="clip0_19_435">
<rect width="20" height="20" fill="white" transform="matrix(1 0 0 -1 0.640137 20.66)"/>
</clipPath>
</defs>
</svg>
