<svg width="46" height="65" viewBox="0 0 46 65" fill="none" xmlns="http://www.w3.org/2000/svg">
<path d="M42.1303 30.2212C42.9999 30.3952 43.739 30.8154 44.3477 31.4821C44.9564 32.1488 45.2608 32.9459 45.2608 33.8734V41.3517C45.2608 41.8155 45.0289 42.0473 44.5651 42.0473H42.3042C42.3042 43.2647 41.8694 44.3082 40.9999 45.1778C40.1303 46.0473 39.0868 46.4821 37.8694 46.4821C36.6521 46.4821 35.6086 46.0473 34.739 45.1778C33.8694 44.3082 33.4347 43.2647 33.4347 42.0473H17.7825C17.7825 43.2647 17.3477 44.3082 16.4781 45.1778C15.6086 46.0473 14.5651 46.4821 13.3477 46.4821C12.1303 46.4821 11.0868 46.0473 10.2173 45.1778C9.34771 44.3082 8.91293 43.2647 8.91293 42.0473H5.1738C4.768 42.0473 4.42017 41.9024 4.13032 41.6126C3.84046 41.3227 3.69554 40.9749 3.69554 40.5691V39.0039H1.43467C0.970898 39.0039 0.739014 38.772 0.739014 38.3082C0.739014 37.8444 0.970898 37.6126 1.43467 37.6126H8.13032C8.59409 37.6126 8.82597 37.8444 8.82597 38.3082C8.82597 38.772 8.59409 39.0039 8.13032 39.0039H5.08684V40.5691C5.08684 40.627 5.11583 40.656 5.1738 40.656H9.1738C9.46365 39.7285 9.98539 38.9894 10.739 38.4386C11.4926 37.8879 12.3477 37.6126 13.3042 37.6126C14.2608 37.6126 15.1303 37.8879 15.9129 38.4386C16.6955 38.9894 17.2318 39.7285 17.5216 40.656H31.9564V35.3517C31.9564 34.8879 32.1883 34.656 32.6521 34.656C33.1158 34.656 33.3477 34.8879 33.3477 35.3517V40.656H33.6955C33.9854 39.7285 34.5216 38.9894 35.3042 38.4386C36.0868 37.8879 36.9419 37.6126 37.8694 37.6126C38.5071 37.6126 39.1013 37.743 39.6521 38.0039C40.2028 38.2647 40.6955 38.627 41.1303 39.0908C41.5651 39.5546 41.8694 40.0763 42.0434 40.656H43.8694V37.5256H43.0868C42.4492 37.5256 41.9274 37.3227 41.5216 36.9169C41.1158 36.5111 40.9129 35.9894 40.9129 35.3517V33.8734C40.9129 33.4097 41.1448 33.1778 41.6086 33.1778H43.7825C43.4347 32.1343 42.71 31.6126 41.6086 31.6126H33.3477V32.3952C33.3477 32.8589 33.1158 33.0908 32.6521 33.0908C32.1883 33.0908 31.9564 32.8589 31.9564 32.3952V19.7865C31.9564 19.7285 31.9564 19.6995 31.9564 19.6995H5.1738C5.11583 19.6995 5.08684 19.7285 5.08684 19.7865V32.3952C5.08684 32.8589 4.85496 33.0908 4.39119 33.0908C3.92742 33.0908 3.69554 32.8589 3.69554 32.3952V19.7865C3.69554 19.3807 3.84046 19.0328 4.13032 18.743C4.42017 18.4531 4.768 18.3082 5.1738 18.3082H31.9564C32.1883 18.3082 32.4202 18.3807 32.6521 18.5256C32.8839 18.6705 33.0579 18.8444 33.1738 19.0473C33.2897 19.2502 33.3477 19.4966 33.3477 19.7865V21.2647H38.6521C39.4057 21.2647 40.0723 21.5546 40.6521 22.1343C41.2318 22.714 41.5216 23.4097 41.5216 24.2212V24.9169C41.5216 25.3227 41.3477 25.5546 40.9999 25.6126L42.1303 30.2212ZM33.3477 22.656V24.2212H40.1303C40.1303 23.8154 39.9854 23.4531 39.6955 23.1343C39.4057 22.8154 39.0579 22.656 38.6521 22.656H33.3477ZM33.3477 30.2212H40.739L39.5216 25.6995H33.3477V30.2212ZM11.1738 44.2212C11.1738 44.2212 11.3187 44.3662 11.6086 44.656C11.8984 44.9459 12.4637 45.0908 13.3042 45.0908C14.1448 45.0908 14.8694 44.801 15.4781 44.2212C16.0868 43.6415 16.3912 42.9314 16.3912 42.0908C16.3912 41.2502 16.0868 40.5256 15.4781 39.9169C14.8694 39.3082 14.1593 39.0039 13.3477 39.0039C12.9419 39.0039 12.5506 39.0908 12.1738 39.2647C11.797 39.4386 11.4781 39.656 11.2173 39.9169C10.9564 40.1778 10.739 40.4966 10.5651 40.8734C10.3912 41.2502 10.3042 41.6415 10.3042 42.0473C10.3042 42.9169 10.5941 43.6415 11.1738 44.2212ZM37.8694 45.0908C38.681 45.0908 39.3912 44.801 39.9999 44.2212C40.6086 43.6415 40.9129 42.9314 40.9129 42.0908C40.9129 41.2502 40.6086 40.5256 39.9999 39.9169C39.3912 39.3082 38.681 39.0039 37.8694 39.0039C37.0579 39.0039 36.3477 39.3082 35.739 39.9169C35.1303 40.5256 34.826 41.2357 34.826 42.0473C34.826 42.627 34.9709 43.1488 35.2608 43.6126C35.5506 44.0763 35.9274 44.4386 36.3912 44.6995C36.855 44.9604 37.3477 45.0908 37.8694 45.0908ZM43.8694 36.1343V34.5691H42.3042V35.3517C42.3042 35.8734 42.5651 36.1343 43.0868 36.1343H43.8694ZM12.3042 41.0473C12.3042 41.0473 12.3767 40.9821 12.5216 40.8517C12.6665 40.7212 12.9419 40.656 13.3477 40.656C13.7535 40.656 14.0868 40.7865 14.3477 41.0473C14.6086 41.3082 14.739 41.6415 14.739 42.0473C14.739 42.4531 14.6086 42.801 14.3477 43.0908C14.0868 43.3807 13.7535 43.5256 13.3477 43.5256C12.9419 43.5256 12.5941 43.3807 12.3042 43.0908C12.0144 42.801 11.8694 42.4531 11.8694 42.0473C11.8694 41.6415 12.0144 41.3082 12.3042 41.0473ZM36.826 41.0473C36.826 41.0473 36.8984 40.9821 37.0434 40.8517C37.1883 40.7212 37.4637 40.656 37.8694 40.656C38.2752 40.656 38.6231 40.7865 38.9129 41.0473C39.2028 41.3082 39.3477 41.6415 39.3477 42.0473C39.3477 42.4531 39.2028 42.801 38.9129 43.0908C38.6231 43.3807 38.2752 43.5256 37.8694 43.5256C37.4637 43.5256 37.1158 43.3807 36.826 43.0908C36.5361 42.801 36.3912 42.4531 36.3912 42.0473C36.3912 41.6415 36.5361 41.3082 36.826 41.0473ZM29.6955 37.6126C30.1593 37.6126 30.3912 37.8444 30.3912 38.3082C30.3912 38.772 30.1593 39.0039 29.6955 39.0039H19.2608C18.797 39.0039 18.5651 38.772 18.5651 38.3082C18.5651 37.8444 18.797 37.6126 19.2608 37.6126H29.6955ZM11.8694 34.656C12.3332 34.656 12.5651 34.8879 12.5651 35.3517C12.5651 35.8154 12.3332 36.0473 11.8694 36.0473H2.91293C2.44916 36.0473 2.21727 35.8154 2.21727 35.3517C2.21727 34.8879 2.44916 34.656 2.91293 34.656H11.8694ZM23.9564 25.1778C24.3042 24.8879 24.6376 24.9024 24.9564 25.2212C25.2752 25.5401 25.2897 25.8734 24.9999 26.2212L18.3042 32.9169C18.1303 33.0328 17.9564 33.0908 17.7825 33.0908C17.6086 33.0908 17.4347 33.0328 17.2608 32.9169L13.6086 29.1778C13.2608 28.8299 13.2463 28.4966 13.5651 28.1778C13.8839 27.8589 14.2173 27.8734 14.5651 28.2212L17.7825 31.4386L23.9564 25.1778Z" fill="#687188"/>
</svg>
